<svg xmlns="http://www.w3.org/2000/svg" width="320" height="120"><path fill="#FF9900" d="M190.42 66.24c-12.355 9.127-30.302 13.991-45.717 13.991-21.633 0-41.086-7.991-55.848-21.307-.459-.42-.048-1.003.503-.672 19.76 11.487 44.09 18.416 69.303 18.416 17.002 0 35.676-3.534 52.898-10.836.86-.383 1.576.563.86.792l-21.999.616zm24.615-2.774c-1.576-2.019-10.43-1.003-14.43-.503-.72.084-.839-.539-.192-.995 7.064-4.956 18.662-3.534 20.022-1.871 1.36 1.675-1.576 13.27-6.964 18.812-.792.839-1.552.383-1.192-.575 1.192-2.954 3.823-9.547 2.756-14.868z"/><path fill="#000000" d="M178.065 55.753V51.5c0-.672.504-1.115 1.12-1.115h19.982c.64 0 1.144.455 1.144 1.115v3.678c0 .636-.528 1.463-1.456 2.774l-10.358 14.784c3.847-.096 7.911.479 11.43 2.43.792.432 1.003 1.067.072 1.967l-3.967 3.762c-.672.6-1.48.636-2.176.24-3.127-2.607-7.279-2.894-10.742-.036-.72.6-1.672.636-2.296-.036l-7.327-7.007c-.648-.6-.072-1.595.72-1.595h4.255c.648 0 1.144-.455 1.552-1.127l9.502-13.63h-8.279c-.64 0-1.144-.443-1.144-1.115l-.024-.72h-.008zm-98.017 44.04h-6.076c-.576-.036-1.036-.479-1.072-1.043V51.752c0-.636.528-1.127 1.192-1.127h5.66c.6.024 1.084.491 1.12 1.079v6.219h.12C82.616 51.896 86.871 50 92.243 50c5.516 0 8.975 1.896 11.454 5.961C106.32 51.896 111.596 50 116.8 50c3.847 0 8.063 1.595 10.622 5.177 2.92 3.99 2.32 9.775 2.32 14.844v29.877c0 .636-.528 1.127-1.192 1.127h-6.052c-.624-.036-1.12-.515-1.12-1.127V73.66c0-2.187.192-7.631-.288-9.703-.768-3.486-3.055-4.469-6.028-4.469-2.488 0-5.084 1.667-6.148 4.325-1.06 2.666-.96 7.091-.96 9.847v25.241c0 .636-.528 1.127-1.192 1.127h-6.052c-.624-.036-1.12-.515-1.12-1.127V73.66c0-5.789.96-14.304-6.244-14.304-7.279 0-7.003 8.299-7.003 14.304v25.241c-.024.612-.552 1.091-1.192 1.091l.024-.192v-.008zM235.422 50c9.023 0 13.902 7.739 13.902 17.586 0 9.511-5.396 17.049-13.902 17.049-8.855 0-13.686-7.739-13.686-17.382 0-9.703 4.879-17.262 13.686-17.262v.012zm.048 6.375c-4.471 0-4.759 6.087-4.759 9.883 0 3.798-.048 11.92 4.711 11.92 4.711 0 4.927-6.57 4.927-10.571 0-2.642-.12-5.789-.912-8.287-.672-2.138-2.008-2.942-3.967-2.942v-.012zm25.741 38.645h-6.028c-.624-.036-1.12-.515-1.12-1.127V51.824c.048-.563.552-1.007 1.168-1.007h5.612c.528.024.972.383 1.084.887v6.471h.12c1.696-4.229 4.063-6.243 8.231-6.243 2.704 0 5.348.983 7.04 3.666C279.007 58.443 279.295 63.7 279.295 68v30.05c-.072.539-.552.959-1.144.959h-6.1c-.576-.036-1.06-.467-1.096-1.007V73.469c0-5.729.672-14.089-6.388-14.089-2.488 0-4.759 1.667-5.9 4.181-.96 2.498-1.432 5.789-1.432 9.907v24.449c-.024.636-.576 1.127-1.216 1.127l.192-.024zm-117.52-.192V51.896c.048-.563.552-.983 1.144-.983h6.22c.576.024 1.048.455 1.096 1.007v46.908c-.048.563-.528.983-1.12.983h-5.54c-.576-.024-1.048-.455-1.096-.983h-.72l.024-.012zm-38.933-29.661v-.983c-2.248-.048-4.615-.539-6.7-1.439-4.495-1.871-7.615-5.729-7.615-11.99 0-7.631 4.783-11.438 10.91-11.438 2.8 0 5.108.635 6.844 1.667 2.056 1.235 3.559 2.954 4.375 4.993.84 1.847.84 3.918 1.144 5.825v1.439h-6.148c-.576-.036-1.048-.455-1.096-.995-.12-3.402-.408-7.403-4.615-7.403-3.967 0-4.255 5.153-4.255 8.347 0 3.197.168 7.835 4.207 7.835 1.792 0 3.271-.887 3.799-2.642.144-.491.552-.851 1.06-.887h6.196l.024.983c-.456 6.507-4.567 10.185-10.91 10.185-5.78 0-10.214-3.678-10.214-11.498 0-7.835 4.435-11.498 10.214-11.498 2.896 0 5.516.767 7.423 2.33l.096.096h1.888v1.079h-6.627zm157.57 0v-.983c-2.248-.048-4.615-.539-6.7-1.439-4.495-1.871-7.615-5.729-7.615-11.99 0-7.631 4.783-11.438 10.91-11.438 2.8 0 5.108.635 6.844 1.667 2.056 1.235 3.559 2.954 4.375 4.993.84 1.847.84 3.918 1.144 5.825v1.439h-6.148c-.576-.036-1.048-.455-1.096-.995-.12-3.402-.408-7.403-4.615-7.403-3.967 0-4.255 5.153-4.255 8.347 0 3.197.168 7.835 4.207 7.835 1.792 0 3.271-.887 3.799-2.642.144-.491.552-.851 1.06-.887h6.196l.024.983c-.456 6.507-4.567 10.185-10.91 10.185-5.78 0-10.214-3.678-10.214-11.498 0-7.835 4.435-11.498 10.214-11.498 2.896 0 5.516.767 7.423 2.33l.096.096h1.888v1.079h-6.627z"/></svg> 