<svg xmlns="http://www.w3.org/2000/svg" width="320" height="120"><path d="M213.803 63.917c-.186-19.035 15.53-28.198 16.238-28.673-8.85-12.965-22.644-14.743-27.552-14.743-11.728-.745-22.88 6.904-28.862 6.904-5.937 0-15.156-6.735-24.902-6.565-12.822.186-24.625 7.453-31.203 18.921-13.316 23.103-3.408 57.31 9.572 76.052 6.338 9.166 13.891 19.461 23.817 19.091 9.551-.372 13.167-6.177 24.708-6.177 11.541 0 14.796 6.177 24.902 5.991 10.293-.186 16.796-9.352 23.103-18.518 7.268-10.631 10.27-20.922 10.456-21.453-.229-.093-20.085-7.706-20.277-30.551v-.279zm-19.035-56.193c5.267-6.391 8.815-15.249 7.855-24.088-7.593.279-16.796 5.06-22.273 11.45-4.894 5.665-9.183 14.743-8.036 23.438 8.478.651 17.14-4.288 22.366-10.707l.093-.093h-.005z"/></svg> 