<svg xmlns="http://www.w3.org/2000/svg" width="320" height="120"><path fill="#003087" d="M124.45 63.862l-2.198 13.91h-4.396l2.198-13.91h4.396zm19.782-9.514c-2.198-2.198-5.495-3.297-9.514-3.297h-12.811l-3.297 20.584h4.396l1.099-6.594h8.415c2.198 0 3.297.549 3.846 1.648.549 1.099.549 2.198.549 3.297l-1.099 6.594h4.396l1.099-6.594c0-1.648 0-3.297-.549-4.945-.549-1.648-1.648-2.747-3.297-3.297 1.648-.549 2.747-1.648 3.846-2.747.549-1.648 1.099-3.297 1.099-4.945 0-1.099-.549-2.198-1.099-3.297l2.198 2.198v1.099l.723.296zm-6.044 1.099c0 1.099-.549 2.198-1.099 2.747-.549.549-1.648 1.099-3.297 1.099h-7.316l1.099-6.594h7.316c1.648 0 2.747.549 3.297 1.099.549.549.549 1.099.549 1.648h-.549zm30.647 22.232h-4.396l.549-3.846c-.549 1.099-1.648 2.198-2.747 2.747-1.099.549-2.747 1.099-4.396 1.099-2.198 0-3.846-.549-4.945-1.648-1.099-1.099-1.648-2.747-1.648-4.945 0-2.747.549-4.945 2.198-6.594 1.648-1.648 3.846-2.198 6.594-2.198h6.594l.549-3.846c0-1.099-.549-1.648-1.099-2.198-.549-.549-1.648-.549-3.297-.549-1.099 0-2.198 0-3.297.549-1.099.549-1.648 1.099-2.198 2.198h-4.396c.549-1.648 1.648-3.297 3.297-4.396 1.648-1.099 3.846-1.648 6.594-1.648 2.747 0 4.945.549 6.594 1.648 1.648 1.099 2.198 2.747 2.198 4.945l-2.747 18.386zm-4.945-9.514h-6.594c-1.648 0-2.747.549-3.846 1.099-.549.549-1.099 1.648-1.099 3.297 0 1.099.549 1.648 1.099 2.198.549.549 1.648.549 2.747.549 1.648 0 3.297-.549 4.396-1.648 1.099-1.099 1.648-2.747 2.198-4.396l1.099-1.099zm25.529-11.712c-1.099-1.099-2.747-1.648-4.945-1.648-2.198 0-3.846.549-4.945 1.648-1.099 1.099-2.198 2.747-2.747 4.945h-4.396c.549-2.747 1.648-4.945 3.846-6.594 2.198-1.648 4.945-2.747 8.415-2.747 3.297 0 5.495.549 7.316 2.198 1.648 1.648 2.747 3.846 2.747 6.594 0 1.648-.549 3.297-1.099 4.945-.549 1.648-1.648 2.747-2.747 3.846-1.099 1.099-2.747 1.648-4.396 2.198-1.648.549-3.297.549-4.945.549h-2.198l-.549 3.846h-4.396l2.198-13.91h4.396l-.549 3.846h2.198c2.198 0 3.846-.549 4.945-1.648 1.099-1.099 1.648-2.747 1.648-4.945 0-1.648-.549-2.747-1.099-3.846l1.648-.549.549.549v.723h.055zm22.232 21.133l3.297-20.584h4.396l-2.747 17.287h10.613l-.549 3.297h-15.009zm28.998-20.584l-3.297 20.584h-4.396l3.297-20.584h4.396zm2.198-6.594c-.549-.549-.549-1.099-.549-1.648 0-.549.549-1.099 1.099-1.648.549-.549 1.099-.549 1.648-.549.549 0 1.099.549 1.648 1.099.549.549.549 1.099.549 1.648 0 .549-.549 1.099-1.099 1.648-.549.549-1.099.549-1.648.549-.549 0-1.099-.549-1.648-1.099zm24.981 17.287c0 1.648-.549 3.297-1.648 4.945-1.099 1.648-2.747 2.747-4.396 3.846-1.648 1.099-3.846 1.648-6.594 1.648-2.198 0-4.396-.549-6.044-1.648-1.648-1.099-2.747-2.747-3.297-4.945h4.396c.549 1.099 1.099 1.648 2.198 2.198 1.099.549 2.198.549 3.297.549 2.198 0 3.846-.549 4.945-1.648 1.099-1.099 2.198-2.198 2.198-3.846 0-1.099-.549-2.198-1.648-2.747-1.099-.549-2.747-1.099-4.945-1.099h-2.747l.549-3.297h2.747c1.648 0 3.297-.549 4.396-1.099 1.099-.549 1.648-1.648 1.648-3.297 0-1.099-.549-1.648-1.099-2.198-.549-.549-1.648-.549-3.297-.549-1.099 0-2.198 0-3.297.549-1.099.549-1.648 1.099-2.198 2.198h-4.396c.549-1.648 1.648-3.297 3.297-4.396 1.648-1.099 3.846-1.648 6.594-1.648 2.747 0 4.945.549 6.594 1.648 1.648 1.099 2.198 2.747 2.198 4.396 0 1.648-.549 2.747-1.648 3.846-1.099 1.099-2.198 1.648-3.846 2.198 1.648.549 3.297 1.099 4.396 2.198 1.099 1.099 1.648 2.747 1.648 4.396l.055-.846z"/><path fill="#009CDE" d="M124.45 63.862l-2.198 13.91h-4.396l2.198-13.91h4.396zm19.782-9.514c-2.198-2.198-5.495-3.297-9.514-3.297h-12.811l-3.297 20.584h4.396l1.099-6.594h8.415c2.198 0 3.297.549 3.846 1.648.549 1.099.549 2.198.549 3.297l-1.099 6.594h4.396l1.099-6.594c0-1.648 0-3.297-.549-4.945-.549-1.648-1.648-2.747-3.297-3.297 1.648-.549 2.747-1.648 3.846-2.747.549-1.648 1.099-3.297 1.099-4.945 0-1.099-.549-2.198-1.099-3.297l2.198 2.198v1.099l.723.296zm-6.044 1.099c0 1.099-.549 2.198-1.099 2.747-.549.549-1.648 1.099-3.297 1.099h-7.316l1.099-6.594h7.316c1.648 0 2.747.549 3.297 1.099.549.549.549 1.099.549 1.648h-.549zm30.647 22.232h-4.396l.549-3.846c-.549 1.099-1.648 2.198-2.747 2.747-1.099.549-2.747 1.099-4.396 1.099-2.198 0-3.846-.549-4.945-1.648-1.099-1.099-1.648-2.747-1.648-4.945 0-2.747.549-4.945 2.198-6.594 1.648-1.648 3.846-2.198 6.594-2.198h6.594l.549-3.846c0-1.099-.549-1.648-1.099-2.198-.549-.549-1.648-.549-3.297-.549-1.099 0-2.198 0-3.297.549-1.099.549-1.648 1.099-2.198 2.198h-4.396c.549-1.648 1.648-3.297 3.297-4.396 1.648-1.099 3.846-1.648 6.594-1.648 2.747 0 4.945.549 6.594 1.648 1.648 1.099 2.198 2.747 2.198 4.945l-2.747 18.386zm-4.945-9.514h-6.594c-1.648 0-2.747.549-3.846 1.099-.549.549-1.099 1.648-1.099 3.297 0 1.099.549 1.648 1.099 2.198.549.549 1.648.549 2.747.549 1.648 0 3.297-.549 4.396-1.648 1.099-1.099 1.648-2.747 2.198-4.396l1.099-1.099zm25.529-11.712c-1.099-1.099-2.747-1.648-4.945-1.648-2.198 0-3.846.549-4.945 1.648-1.099 1.099-2.198 2.747-2.747 4.945h-4.396c.549-2.747 1.648-4.945 3.846-6.594 2.198-1.648 4.945-2.747 8.415-2.747 3.297 0 5.495.549 7.316 2.198 1.648 1.648 2.747 3.846 2.747 6.594 0 1.648-.549 3.297-1.099 4.945-.549 1.648-1.648 2.747-2.747 3.846-1.099 1.099-2.747 1.648-4.396 2.198-1.648.549-3.297.549-4.945.549h-2.198l-.549 3.846h-4.396l2.198-13.91h4.396l-.549 3.846h2.198c2.198 0 3.846-.549 4.945-1.648 1.099-1.099 1.648-2.747 1.648-4.945 0-1.648-.549-2.747-1.099-3.846l1.648-.549.549.549v.723h.055zm22.232 21.133l3.297-20.584h4.396l-2.747 17.287h10.613l-.549 3.297h-15.009zm28.998-20.584l-3.297 20.584h-4.396l3.297-20.584h4.396zm2.198-6.594c-.549-.549-.549-1.099-.549-1.648 0-.549.549-1.099 1.099-1.648.549-.549 1.099-.549 1.648-.549.549 0 1.099.549 1.648 1.099.549.549.549 1.099.549 1.648 0 .549-.549 1.099-1.099 1.648-.549.549-1.099.549-1.648.549-.549 0-1.099-.549-1.648-1.099zm24.981 17.287c0 1.648-.549 3.297-1.648 4.945-1.099 1.648-2.747 2.747-4.396 3.846-1.648 1.099-3.846 1.648-6.594 1.648-2.198 0-4.396-.549-6.044-1.648-1.648-1.099-2.747-2.747-3.297-4.945h4.396c.549 1.099 1.099 1.648 2.198 2.198 1.099.549 2.198.549 3.297.549 2.198 0 3.846-.549 4.945-1.648 1.099-1.099 2.198-2.198 2.198-3.846 0-1.099-.549-2.198-1.648-2.747-1.099-.549-2.747-1.099-4.945-1.099h-2.747l.549-3.297h2.747c1.648 0 3.297-.549 4.396-1.099 1.099-.549 1.648-1.648 1.648-3.297 0-1.099-.549-1.648-1.099-2.198-.549-.549-1.648-.549-3.297-.549-1.099 0-2.198 0-3.297.549-1.099.549-1.648 1.099-2.198 2.198h-4.396c.549-1.648 1.648-3.297 3.297-4.396 1.648-1.099 3.846-1.648 6.594-1.648 2.747 0 4.945.549 6.594 1.648 1.648 1.099 2.198 2.747 2.198 4.396 0 1.648-.549 2.747-1.648 3.846-1.099 1.099-2.198 1.648-3.846 2.198 1.648.549 3.297 1.099 4.396 2.198 1.099 1.099 1.648 2.747 1.648 4.396l.055-.846z"/></svg> 